<svg xmlns="http://www.w3.org/2000/svg" viewBox="0 0 24 24"><path d="M12 1c6.064 0 11 4.936 11 11s-4.936 11-11 11C5.935 23 1 18.064 1 12S5.935 1 12 1m0-1C5.373 0 0 5.373 0 12s5.373 12 12 12 12-5.373 12-12S18.627 0 12 0z"/><path d="M17 22.5a.5.5 0 0 1-.499-.469c-.457-7.313-3.938-14.886-9.313-20.261a.5.5 0 0 1 .707-.707c5.542 5.543 9.132 13.355 9.604 20.904a.5.5 0 0 1-.468.53c-.01.003-.021.003-.031.003z"/><path d="M1 11.063a.5.5 0 0 1 0-1c6.742 0 15.438-1.097 18.57-6.317a.5.5 0 0 1 .858.514C17.055 9.882 8 11.063 1 11.063zM4.687 21.042a.5.5 0 0 1-.434-.748c4.227-7.397 12.931-9.756 18.905-7.769a.502.502 0 0 1 .316.633.497.497 0 0 1-.633.314c-5.589-1.861-13.747.364-17.72 7.315a.496.496 0 0 1-.434.255z"/></svg>