<svg width="17" height="16" viewBox="0 0 17 16" fill="none" xmlns="http://www.w3.org/2000/svg">
<g clip-path="url(#clip0_1_126)">
<path d="M8.5 0.25C4.22662 0.25 0.75 3.72662 0.75 8C0.75 12.2734 4.22662 15.75 8.5 15.75C12.7734 15.75 16.25 12.2734 16.25 8C16.25 3.72662 12.7734 0.25 8.5 0.25ZM13.6241 3.82394C14.546 4.95037 15.1043 6.38509 15.1189 7.94753C14.9007 7.90137 12.7121 7.45747 10.5095 7.73447C10.3297 7.29569 10.1601 6.90969 9.92769 6.43403C12.3752 5.43475 13.4845 4.01272 13.6241 3.82394V3.82394ZM12.8882 3.05844C12.7691 3.22803 11.7726 4.56738 9.41875 5.44966C8.334 3.45666 7.13172 1.81941 6.94875 1.57441C9.048 1.06837 11.2602 1.61409 12.8882 3.05844V3.05844ZM5.68566 2.01938C5.86019 2.25872 7.04309 3.898 8.13994 5.84778C5.04347 6.67006 2.31619 6.65822 2.02013 6.65431C2.44938 4.60016 3.83369 2.89291 5.68566 2.01938ZM1.88031 8.01009C1.88031 7.94241 1.88166 7.87503 1.88369 7.80781C2.17331 7.81375 5.38119 7.85509 8.687 6.86575C8.8765 7.23662 9.05753 7.61309 9.22369 7.98916C6.82997 8.66338 4.65513 10.5994 3.58209 12.4362C2.52481 11.2627 1.88031 9.71031 1.88031 8.01009ZM4.43678 13.2324C5.12825 11.8188 7.00484 9.99419 9.67362 9.08375C10.603 11.4988 10.9873 13.5229 11.0858 14.1037C8.95728 15.0103 6.39781 14.7616 4.43678 13.2324V13.2324ZM12.1987 13.4977C12.1308 13.095 11.7785 11.1571 10.9127 8.77787C12.987 8.44581 14.8095 8.98937 15.036 9.06084C14.7409 10.9027 13.6837 12.4935 12.1987 13.4977Z" fill="#261F22"/>
</g>
<defs>
<clipPath id="clip0_1_126">
<rect width="16" height="16" fill="white" transform="translate(0.5)"/>
</clipPath>
</defs>
</svg>
