<svg width="66" height="66" viewBox="0 0 66 66" fill="none" xmlns="http://www.w3.org/2000/svg">
<rect x="0.5" y="0.194336" width="65" height="65" rx="8" fill="#55ACEE"/>
<g clip-path="url(#clip0_512_1693)">
<path d="M27.7929 42.3506C27.7929 41.3089 26.8414 40.7881 24.9385 40.7881C23.1164 40.7881 22.2053 41.3298 22.2053 42.4131C22.2053 43.4652 23.1971 43.9912 25.1807 43.9912C26.9222 43.9912 27.7929 43.4443 27.7929 42.3506ZM26.7723 30.5537C26.7723 29.9183 26.5993 29.387 26.2533 28.96C25.9073 28.5329 25.3941 28.3193 24.7137 28.3193C23.2836 28.3193 22.5686 29.0745 22.5686 30.585C22.5686 31.9912 23.2836 32.6943 24.7137 32.6943C26.0861 32.6943 26.7723 31.9808 26.7723 30.5537ZM31.4257 25.4912V28.6475C31.0105 28.7725 30.555 28.887 30.0591 28.9912C30.2436 29.4391 30.3359 29.8766 30.3359 30.3037C30.3359 31.6266 29.9149 32.7542 29.073 33.6865C28.2311 34.6188 27.0952 35.2048 25.6651 35.4443C25.2038 35.5277 24.8607 35.6683 24.6358 35.8662C24.4109 36.0641 24.2985 36.3662 24.2985 36.7725C24.2985 37.0954 24.4282 37.3636 24.6877 37.5771C24.9472 37.7907 25.2816 37.9574 25.6911 38.0771C26.1005 38.1969 26.5531 38.3115 27.049 38.4209C27.5449 38.5303 28.0409 38.6631 28.5368 38.8193C29.0327 38.9756 29.4853 39.1709 29.8947 39.4053C30.3042 39.6396 30.6386 39.973 30.8981 40.4053C31.1576 40.8376 31.2873 41.3506 31.2873 41.9443C31.2873 45.111 29.1941 46.6943 25.0077 46.6943C24.212 46.6943 23.4624 46.6292 22.7589 46.499C22.0554 46.3688 21.3865 46.1553 20.7522 45.8584C20.1179 45.5615 19.6133 45.1344 19.2385 44.5771C18.8637 44.0199 18.6763 43.3558 18.6763 42.585C18.6763 40.8662 19.7257 39.6943 21.8247 39.0693V39.0068C21.052 38.5798 20.6657 37.9235 20.6657 37.0381C20.6657 35.9027 21.0289 35.1891 21.7555 34.8975V34.835C20.9252 34.585 20.2361 34.0199 19.6883 33.1396C19.1405 32.2594 18.8666 31.3975 18.8666 30.5537C18.8666 29.1058 19.4144 27.9001 20.51 26.9365C21.6056 25.973 22.9607 25.4912 24.5753 25.4912C25.6824 25.4912 26.7088 25.736 27.6545 26.2256C28.7847 26.2256 30.0418 25.9808 31.4257 25.4912ZM36.9268 39.2568H33.0864C33.1326 38.7881 33.1556 38.0902 33.1556 37.1631V27.6475C33.1556 26.6683 33.1326 26.0016 33.0864 25.6475H36.9268C36.8807 25.9912 36.8576 26.637 36.8576 27.585V37.1631C36.8576 38.0902 36.8807 38.7881 36.9268 39.2568ZM47.3236 35.7881V38.8506C46.5048 39.2568 45.5014 39.46 44.3135 39.46C43.5985 39.46 42.9815 39.3558 42.4625 39.1475C41.9436 38.9391 41.5399 38.6787 41.2516 38.3662C40.9633 38.0537 40.7355 37.6475 40.5683 37.1475C40.4011 36.6475 40.2944 36.1683 40.2483 35.71C40.2021 35.2516 40.1791 34.7152 40.1791 34.1006V28.6162H40.2137V28.5537C40.1329 28.5537 40.0234 28.5485 39.885 28.5381C39.7466 28.5277 39.6428 28.5225 39.5736 28.5225C39.3314 28.5225 38.9912 28.5537 38.5529 28.6162V25.6475H40.2137V24.46C40.2137 23.8975 40.1791 23.4339 40.1099 23.0693H44.0368C43.9676 23.4964 43.933 24.3558 43.933 25.6475H46.8911V28.6162C46.7181 28.6162 46.4673 28.6058 46.1386 28.585C45.8099 28.5641 45.5649 28.5537 45.4034 28.5537H43.933V34.2568C43.933 35.6214 44.4346 36.3037 45.438 36.3037C46.1415 36.3037 46.77 36.1318 47.3236 35.7881ZM37.3593 20.9912C37.3593 21.5954 37.1344 22.124 36.6846 22.5771C36.2349 23.0303 35.6813 23.2568 35.0239 23.2568C34.355 23.2568 33.7899 23.0303 33.3286 22.5771C32.8673 22.124 32.6366 21.5954 32.6366 20.9912C32.6366 20.3766 32.8644 19.8402 33.32 19.3818C33.7755 18.9235 34.3435 18.6943 35.0239 18.6943C35.6928 18.6943 36.2493 18.9261 36.6933 19.3896C37.1373 19.8532 37.3593 20.387 37.3593 20.9912Z" fill="white"/>
</g>
<defs>
<clipPath id="clip0_512_1693">
<rect width="31" height="28" fill="white" transform="translate(17.5 18.6943)"/>
</clipPath>
</defs>
</svg>
