<svg width="66" height="66" viewBox="0 0 66 66" fill="none" xmlns="http://www.w3.org/2000/svg">
<rect x="0.5" y="0.194336" width="65" height="65" rx="8" fill="white"/>
<path d="M26.3349 32.6943C26.3349 28.9205 29.3189 25.8604 33.0008 25.8604C36.6827 25.8604 39.6683 28.9205 39.6683 32.6943C39.6683 36.4681 36.6827 39.5282 33.0008 39.5282C29.3189 39.5282 26.3349 36.4681 26.3349 32.6943ZM22.7306 32.6943C22.7306 38.5082 27.3285 43.2209 33.0008 43.2209C38.6731 43.2209 43.271 38.5082 43.271 32.6943C43.271 26.8805 38.6731 22.1678 33.0008 22.1678C27.3285 22.1678 22.7306 26.8805 22.7306 32.6943ZM41.2774 21.7505C41.2774 23.1084 42.3518 24.2112 43.6781 24.2112C45.0029 24.2112 46.0789 23.1084 46.0789 21.7505C46.0789 20.3927 45.0045 19.2915 43.6781 19.2915C42.3518 19.2915 41.2774 20.3927 41.2774 21.7505ZM24.9197 49.3808C22.9697 49.2897 21.9099 48.9569 21.2055 48.6754C20.2717 48.3028 19.6061 47.859 18.9049 47.142C18.2054 46.425 17.7708 45.7428 17.4089 44.7857C17.1343 44.0637 16.8095 42.9775 16.7207 40.9788C16.6237 38.8178 16.6043 38.1687 16.6043 32.6943C16.6043 27.2199 16.6253 26.5725 16.7207 24.4099C16.8095 22.4112 17.1359 21.3266 17.4089 20.603C17.7724 19.6459 18.2054 18.9636 18.9049 18.245C19.6045 17.528 20.2701 17.0825 21.2055 16.7116C21.9099 16.4301 22.9697 16.0973 24.9197 16.0062C27.028 15.9069 27.6613 15.887 33.0008 15.887C38.3419 15.887 38.9736 15.9085 41.0835 16.0062C43.0335 16.0973 44.0917 16.4318 44.7977 16.7116C45.7315 17.0825 46.3972 17.528 47.0983 18.245C47.7979 18.962 48.2308 19.6459 48.5943 20.603C48.869 21.3249 49.1937 22.4112 49.2826 24.4099C49.3795 26.5725 49.3989 27.2199 49.3989 32.6943C49.3989 38.1671 49.3795 38.8162 49.2826 40.9788C49.1937 42.9775 48.8674 44.0637 48.5943 44.7857C48.2308 45.7428 47.7979 46.425 47.0983 47.142C46.3988 47.859 45.7315 48.3028 44.7977 48.6754C44.0933 48.9569 43.0335 49.2897 41.0835 49.3808C38.9752 49.4802 38.3419 49.5 33.0008 49.5C27.6613 49.5 27.028 49.4802 24.9197 49.3808ZM24.7549 12.3185C22.6256 12.4179 21.1716 12.764 19.9001 13.2707C18.585 13.7939 17.4703 14.496 16.3572 15.6353C15.2456 16.7745 14.5606 17.9171 14.0501 19.2667C13.5558 20.5699 13.2181 22.0602 13.1212 24.2426C13.0226 26.4284 13 27.1272 13 32.6943C13 38.2615 13.0226 38.9602 13.1212 41.146C13.2181 43.3285 13.5558 44.8188 14.0501 46.122C14.5606 47.4699 15.244 48.6141 16.3572 49.7534C17.4687 50.8926 18.5834 51.5931 19.9001 52.118C21.1732 52.6247 22.6256 52.9708 24.7549 53.0701C26.8891 53.1695 27.5692 53.1943 33.0008 53.1943C38.434 53.1943 39.1141 53.1712 41.2467 53.0701C43.376 52.9708 44.83 52.6247 46.1015 52.118C47.4166 51.5931 48.5313 50.8926 49.6445 49.7534C50.756 48.6141 51.4394 47.4699 51.9515 46.122C52.4459 44.8188 52.7851 43.3285 52.8805 41.146C52.9774 38.9586 53 38.2615 53 32.6943C53 27.1272 52.9774 26.4284 52.8805 24.2426C52.7835 22.0602 52.4459 20.5699 51.9515 19.2667C51.4394 17.9188 50.756 16.7762 49.6445 15.6353C48.5329 14.496 47.4166 13.7939 46.1031 13.2707C44.83 12.764 43.376 12.4162 41.2483 12.3185C39.1158 12.2192 38.434 12.1943 33.0024 12.1943C27.5692 12.1943 26.8891 12.2175 24.7549 12.3185Z" fill="#38BDF8"/>
</svg>
