<svg width="66" height="66" viewBox="0 0 66 66" fill="none" xmlns="http://www.w3.org/2000/svg">
<rect x="0.5" y="0.194336" width="65" height="65" rx="8" fill="#55ACEE"/>
<path fill-rule="evenodd" clip-rule="evenodd" d="M29.7863 28.9056H34.4287V31.2181C35.0975 29.8881 36.8125 28.6931 39.3888 28.6931C44.3275 28.6931 45.5 31.3406 45.5 36.1981V45.1943H40.5V37.3043C40.5 34.5381 39.8313 32.9781 38.1287 32.9781C35.7675 32.9781 34.7863 34.6593 34.7863 37.3031V45.1943H29.7863V28.9056ZM21.2125 44.9818H26.2125V28.6931H21.2125V44.9818ZM26.9288 23.3818C26.9289 23.8009 26.8458 24.2159 26.6842 24.6026C26.5226 24.9893 26.2858 25.34 25.9875 25.6343C25.383 26.2351 24.5648 26.5714 23.7125 26.5693C22.8617 26.5688 22.0454 26.2333 21.44 25.6356C21.1428 25.3402 20.9067 24.9891 20.7454 24.6024C20.5841 24.2156 20.5007 23.8009 20.5 23.3818C20.5 22.5356 20.8375 21.7256 21.4413 21.1281C22.0461 20.5295 22.8628 20.194 23.7138 20.1943C24.5663 20.1943 25.3837 20.5306 25.9875 21.1281C26.59 21.7256 26.9288 22.5356 26.9288 23.3818Z" fill="white"/>
</svg>
