<svg xmlns="http://www.w3.org/2000/svg" viewBox="0 0 64 64"><defs><linearGradient id="a" x1="8.67" x2="55.31" y1="31.99" y2="31.99" gradientUnits="userSpaceOnUse"><stop offset="0" stop-color="#f15abc"/><stop offset="1" stop-color="#e78200"/></linearGradient></defs><path fill="url(#a)" d="M38.58,61.38a30,30,0,0,1-27.08-17,29.35,29.35,0,0,1-.66-23.64A29.67,29.67,0,0,1,33.35,2.63a2.3,2.3,0,0,1,2.38,1.08,2.43,2.43,0,0,1-.08,2.72,29.56,29.56,0,0,0,2.06,36.92,1,1,0,0,1-1.49,1.34A31.56,31.56,0,0,1,34,5.27a.44.44,0,0,0,0-.5.34.34,0,0,0-.36-.17,27.76,27.76,0,0,0-21,16.92,27.42,27.42,0,0,0,.62,22.06A28,28,0,0,0,48.58,57.46a26.94,26.94,0,0,0,4.57-2.34.34.34,0,0,0,.16-.36.45.45,0,0,0-.35-.35,31.74,31.74,0,0,1-13.62-6.7,1,1,0,1,1,1.29-1.53,29.71,29.71,0,0,0,12.75,6.27,2.45,2.45,0,0,1,1.9,2,2.3,2.3,0,0,1-1.05,2.39,29.13,29.13,0,0,1-4.91,2.52A28.75,28.75,0,0,1,38.58,61.38ZM28.5,52A2.5,2.5,0,0,1,26,49.5a2.37,2.37,0,0,1,.09-.65A3.93,3.93,0,0,1,25,49a4,4,0,1,1,3.46-2A2.47,2.47,0,0,1,31,49.5,2.5,2.5,0,0,1,28.5,52Zm0-3a.5.5,0,1,0,.5.5A.5.5,0,0,0,28.5,49ZM25,43a2,2,0,1,0,2,2A2,2,0,0,0,25,43ZM24,25a2,2,0,1,1,2-2A2,2,0,0,1,24,25Z" data-name="6"/></svg>