<svg width="23" height="22" viewBox="0 0 23 22" fill="none" xmlns="http://www.w3.org/2000/svg">
<path d="M19.2309 4.22817C19.2309 4.19379 19.2 4.17317 19.1725 4.19723C18.6328 4.66473 17.33 5.04286 17.165 5.06004C17.1601 5.06222 17.1549 5.06335 17.1495 5.06335C17.1442 5.06335 17.1389 5.06222 17.1341 5.06004C16.1784 3.53379 13.975 3.94629 13.975 3.94629C10.7369 4.63379 11.0944 7.90629 11.1563 8.25004C11.1563 8.26723 11.1563 8.28098 11.1253 8.28098C7.52281 8.45973 4.3775 5.11161 4.02 4.71629C4.01645 4.71197 4.01199 4.7085 4.00694 4.70611C4.00189 4.70372 3.99637 4.70248 3.99078 4.70248C3.98519 4.70248 3.97968 4.70372 3.97462 4.70611C3.96957 4.7085 3.96511 4.71197 3.96156 4.71629C3.55729 5.46576 3.4291 6.33341 3.59936 7.16776C3.76962 8.00211 4.22753 8.75015 4.89313 9.28129C4.89883 9.28462 4.90357 9.28939 4.90686 9.29512C4.91015 9.30085 4.91188 9.30734 4.91188 9.31395C4.91188 9.32056 4.91015 9.32705 4.90686 9.33278C4.90357 9.33851 4.89883 9.34327 4.89313 9.34661C4.42365 9.33193 3.9595 9.24258 3.51813 9.08192C3.4975 9.08192 3.47344 9.08192 3.47344 9.11629C3.52156 11.2475 5.61156 12.21 6.09625 12.4129C6.10313 12.4151 6.10912 12.4195 6.11336 12.4254C6.11761 12.4312 6.11989 12.4383 6.11989 12.4455C6.11989 12.4528 6.11761 12.4598 6.11336 12.4657C6.10912 12.4715 6.10313 12.4759 6.09625 12.4782C5.66189 12.5728 5.21613 12.6041 4.77281 12.571C4.76685 12.5708 4.76091 12.5719 4.75549 12.5744C4.75008 12.577 4.74533 12.5807 4.74164 12.5854C4.73795 12.5901 4.73543 12.5956 4.73427 12.6015C4.73312 12.6073 4.73337 12.6134 4.735 12.6191C5.17156 14.2622 7.31313 14.9497 7.69813 15.0632C7.70457 15.0645 7.71055 15.0676 7.71547 15.072C7.72039 15.0763 7.72407 15.0819 7.72615 15.0882C7.72824 15.0945 7.72865 15.1011 7.72735 15.1076C7.72605 15.1141 7.72309 15.1201 7.71875 15.125C6.39531 16.3075 3.78625 16.6204 3.25 16.6754C3.24288 16.6763 3.23617 16.6793 3.23066 16.6839C3.22516 16.6885 3.22108 16.6946 3.21892 16.7015C3.21675 16.7083 3.21659 16.7156 3.21844 16.7226C3.22029 16.7295 3.22409 16.7358 3.22938 16.7407C5.23 18.1157 10.4688 19.2569 14.47 15.8366C15.6529 14.8057 16.5876 13.5208 17.2043 12.0779C17.8209 10.6351 18.1036 9.07154 18.0313 7.50411C18.0313 7.49838 18.0329 7.49278 18.036 7.48792C18.039 7.48307 18.0433 7.47915 18.0484 7.47661C18.767 7.05456 19.3658 6.45581 19.7878 5.73723C19.7878 5.70286 19.7878 5.68223 19.7363 5.69254C19.3883 5.81481 19.0126 5.83508 18.6534 5.75098C18.6534 5.75098 19.2413 4.73348 19.2309 4.22817Z" stroke="#261F22" stroke-width="1.03125" stroke-linecap="round"/>
</svg>
