<svg width="25" height="24" viewBox="0 0 25 24" fill="none" xmlns="http://www.w3.org/2000/svg">
<path d="M15.3762 4.88257H9.62374C7.4429 4.88257 5.67499 6.65048 5.67499 8.83132V15.1726C5.67499 17.3534 7.4429 19.1213 9.62374 19.1213H15.3762C17.5571 19.1213 19.325 17.3534 19.325 15.1726V8.83132C19.325 6.65048 17.5571 4.88257 15.3762 4.88257Z" stroke="#261F22" stroke-width="1.125" stroke-linecap="round"/>
<path d="M12.5 15.48C14.422 15.48 15.98 13.922 15.98 12C15.98 10.0781 14.422 8.52002 12.5 8.52002C10.5781 8.52002 9.02002 10.0781 9.02002 12C9.02002 13.922 10.5781 15.48 12.5 15.48Z" stroke="#261F22" stroke-width="1.125" stroke-linecap="round"/>
<path d="M16.6663 7.89747C16.9396 7.89747 17.1613 7.67585 17.1613 7.40247C17.1613 7.12909 16.9396 6.90747 16.6663 6.90747C16.3929 6.90747 16.1713 7.12909 16.1713 7.40247C16.1713 7.67585 16.3929 7.89747 16.6663 7.89747Z" stroke="#261F22" stroke-width="1.125"/>
</svg>
