<svg width="66" height="66" viewBox="0 0 66 66" fill="none" xmlns="http://www.w3.org/2000/svg">
<rect x="0.5" y="0.194336" width="65" height="65" rx="8" fill="white"/>
<path d="M48 23.6167C46.8766 24.1043 45.685 24.4244 44.4649 24.5663C45.7358 23.8199 46.7116 22.638 47.1711 21.2296C45.963 21.9322 44.6412 22.4272 43.2628 22.6932C42.14 21.5211 40.5405 20.7886 38.7702 20.7886C35.3711 20.7886 32.6152 23.489 32.6152 26.8196C32.6152 27.2923 32.6696 27.7526 32.7745 28.1941C27.6593 27.9425 23.1241 25.5415 20.0884 21.8926C19.5587 22.7833 19.2552 23.8195 19.2552 24.9246C19.2552 27.0171 20.3419 28.863 21.9933 29.9446C21.0159 29.9146 20.06 29.656 19.2054 29.1902C19.205 29.2154 19.205 29.2407 19.205 29.2661C19.205 32.1882 21.3266 34.6259 24.1421 35.18C23.2358 35.4215 22.2851 35.4569 21.3627 35.2833C22.1459 37.6794 24.4189 39.423 27.1121 39.4718C25.0057 41.0894 22.3518 42.0536 19.4682 42.0536C18.9714 42.0536 18.4815 42.025 18 41.9693C20.7238 43.6806 23.959 44.679 27.4348 44.679C38.7559 44.679 44.9466 35.4889 44.9466 27.519C44.9466 27.2574 44.9407 26.9973 44.9288 26.7387C46.1337 25.8852 47.1737 24.8279 48 23.6167Z" fill="#55ACEE"/>
</svg>
