<svg xmlns="http://www.w3.org/2000/svg" viewBox="0 0 128 128" id="arrow"><path d="M64 13.3C36 13.3 13.3 36 13.3 64S36 114.7 64 114.7 114.7 92 114.7 64 92 13.3 64 13.3zm0 96.6c-25.3 0-45.9-20.6-45.9-45.9S38.7 18.1 64 18.1s45.9 20.6 45.9 45.9-20.6 45.9-45.9 45.9z"></path><path d="M88.1 61.6H45.7l15.2-15.2c.9-.9.9-2.5 0-3.4-.9-.9-2.5-.9-3.4 0L38.1 62.3c-.2.2-.4.5-.5.8-.2.6-.2 1.3 0 1.8.1.3.3.6.5.8L57.5 85c.5.5 1.1.7 1.7.7s1.2-.2 1.7-.7c.9-.9.9-2.5 0-3.4L45.7 66.4h42.5c1.3 0 2.4-1.1 2.4-2.4s-1.1-2.4-2.5-2.4z"></path></svg>