<svg xmlns="http://www.w3.org/2000/svg" xmlns:xlink="http://www.w3.org/1999/xlink" width="16" height="16" id="arrow"><defs><linearGradient id="a"><stop offset="0" stop-color="#a4b6be"></stop><stop offset="1" stop-color="#7c8b9d"></stop></linearGradient><linearGradient id="b" x1="-122.788" x2="-114.875" y1="1193.405" y2="1193.405" gradientTransform="scale(1.1815 -1.1815) rotate(45 2452.673 303.384)" gradientUnits="userSpaceOnUse" xlink:href="#a"></linearGradient></defs><path fill="url(#b)" d="M3.148 1049.228a.453.453 0 0 0 .321.134h3.637a.335.335 0 0 0 .19-.056c.154-.11.2-.35.043-.505l-.658-.659-.488-.488-.034-.035 3.113-3.113a.333.333 0 0 0 0-.473l-.942-.941a.334.334 0 0 0-.472 0l-3.114 3.113-.512-.512-.675-.676c-.202-.2-.557-.049-.557.237l.013 3.653c0 .126.052.24.135.323zm6.89-5.844a.25.25 0 0 0 .354 0l.354-.353a.25.25 0 0 0 0-.354l-1.06-1.06a.25.25 0 0 0-.354 0l-.354.353a.25.25 0 0 0 0 .353zm1.415-1.414a.25.25 0 0 0 .353 0l.354-.354a.25.25 0 0 0 0-.353l-1.06-1.06a.25.25 0 0 0-.354 0l-.354.353a.25.25 0 0 0 0 .353z" transform="translate(0 -1036.362)"></path></svg>