<?xml version="1.0" standalone="no"?>
<!DOCTYPE svg PUBLIC "-//W3C//DTD SVG 20010904//EN"
 "http://www.w3.org/TR/2001/REC-SVG-20010904/DTD/svg10.dtd">
<svg version="1.0" xmlns="http://www.w3.org/2000/svg"
 width="500.000000pt" height="500.000000pt" viewBox="0 0 500.000000 500.000000"
 preserveAspectRatio="xMidYMid meet">
<metadata>
Created by potrace 1.14, written by Peter Selinger 2001-2017
</metadata>
<g transform="translate(0.000000,500.000000) scale(0.100000,-0.100000)"
fill="#000000" stroke="none">
<path d="M0 2500 l0 -2500 2500 0 2500 0 0 2500 0 2500 -2500 0 -2500 0 0
-2500z m2208 804 c73 -30 132 -106 157 -201 22 -86 22 -776 -1 -854 -23 -81
-75 -151 -137 -185 l-52 -29 -430 0 c-493 0 -492 0 -564 82 -65 73 -85 137
-86 273 0 108 2 119 31 180 33 69 76 120 128 148 28 15 81 17 554 20 l522 3 0
158 c0 196 -12 242 -78 311 -30 31 -61 52 -87 59 -26 7 -207 11 -532 11 -317
0 -494 4 -498 10 -3 6 -3 15 0 20 4 6 189 10 521 10 443 0 520 -2 552 -16z
m1593 -19 c91 -64 134 -161 133 -300 0 -107 -26 -185 -83 -248 -71 -79 -50
-77 -640 -77 l-523 0 4 -197 c3 -174 6 -203 25 -244 21 -46 48 -77 93 -108 21
-14 84 -17 550 -21 517 -5 525 -5 525 -25 0 -20 -8 -20 -505 -23 -365 -2 -517
1 -548 9 -63 17 -136 87 -163 157 -22 55 -23 71 -27 420 -4 382 2 461 39 533
30 60 75 105 132 134 l52 26 447 -3 446 -3 43 -30z m-1921 -1579 c0 -6 -5 -3
-11 7 -5 9 -22 17 -36 17 -14 0 -32 -8 -40 -17 -13 -17 -14 -16 -8 5 4 13 16
44 27 70 l20 45 24 -58 c13 -32 24 -63 24 -69z m142 101 c3 -6 4 -16 1 -23 -2
-7 0 -21 5 -31 17 -29 -3 -53 -43 -53 l-35 0 0 58 c0 32 3 62 6 65 9 9 57 -3
66 -16z m255 -74 c-2 -21 -4 -6 -4 32 0 39 2 55 4 38 2 -18 2 -50 0 -70z m156
49 c3 33 4 28 5 -22 l2 -65 -28 42 c-15 24 -30 43 -34 43 -4 0 -9 -19 -11 -42
-2 -30 -4 -21 -5 27 l-2 70 34 -48 35 -49 4 44z m186 -74 c1 -5 -3 -8 -9 -8
-5 0 -10 7 -10 15 0 10 -10 15 -30 15 -18 0 -33 -6 -36 -15 -4 -8 -10 -15 -14
-15 -5 0 4 30 18 66 l26 67 27 -59 c15 -33 28 -62 28 -66z m166 101 c-12 -38
-47 -111 -51 -107 -11 12 -52 118 -45 118 4 0 16 -21 26 -47 l19 -48 23 53
c24 52 40 70 28 31z m221 -26 c-14 -20 -26 -48 -26 -60 0 -13 -4 -23 -10 -23
-6 0 -10 27 -10 60 0 33 4 60 10 60 6 0 10 -10 10 -22 1 -22 1 -22 22 5 30 41
34 25 4 -20z m269 37 c4 -6 -7 -10 -24 -10 -24 0 -31 -4 -31 -20 0 -16 7 -20
33 -22 l32 -1 -32 -4 c-27 -4 -33 -9 -33 -28 0 -19 6 -24 33 -28 28 -3 26 -4
-10 -5 l-43 -2 0 58 c0 32 3 62 7 65 10 11 61 8 68 -3z m-1129 -50 c19 0 24 5
24 25 0 14 5 25 10 25 6 0 10 -27 10 -60 0 -33 -4 -60 -10 -60 -5 0 -10 11
-10 25 0 20 -5 25 -24 25 -19 0 -26 -6 -29 -27 -2 -16 -4 1 -4 37 0 36 2 53 4
38 3 -22 10 -28 29 -28z m879 -68 c-6 -7 -34 29 -34 43 0 6 9 -1 20 -14 11
-13 17 -26 14 -29z"/>
<path d="M1270 2671 c-43 -22 -95 -88 -111 -139 -6 -20 -13 -74 -16 -119 -10
-145 47 -271 141 -314 38 -17 74 -19 446 -19 240 0 420 4 441 10 46 13 106 71
133 129 19 41 21 67 24 259 l3 212 -513 0 c-480 0 -516 -1 -548 -19z"/>
<path d="M2881 3270 c-50 -12 -112 -60 -143 -110 -38 -61 -48 -126 -48 -306
l0 -154 498 0 c319 0 511 4 535 11 53 14 110 69 138 132 30 69 33 197 5 276
-23 67 -88 135 -142 150 -46 13 -790 13 -843 1z"/>
<path d="M1821 1771 c-10 -18 -9 -21 9 -21 22 0 25 7 11 29 -7 11 -11 9 -20
-8z"/>
<path d="M1970 1790 c0 -22 1 -23 24 -14 23 9 20 34 -4 34 -13 0 -20 -7 -20
-20z"/>
<path d="M1970 1735 c0 -22 4 -26 23 -23 14 2 22 10 22 23 0 13 -8 21 -22 23
-19 3 -23 -1 -23 -23z"/>
<path d="M2560 1793 c0 -6 -3 -18 -6 -27 -4 -11 -1 -16 10 -16 9 0 16 6 16 13
0 16 -20 46 -20 30z"/>
</g>
</svg>
